<svg id="Layer_1" data-name="Layer 1" xmlns="http://www.w3.org/2000/svg" viewBox="0 0 353 353"><title>app_icon</title><circle cx="176.5" cy="176.5" r="176.5" fill="#34abeb"/><ellipse cx="176.69" cy="174.5" rx="112.25" ry="108.5" fill="#fff"/><path d="M114.7,289.73a8.5,8.5,0,0,1-11.84-7.79l-.25-70.62a8.5,8.5,0,0,1,13.17-7.13L181,247A8.5,8.5,0,0,1,179.63,262Z" fill="#fff"/><path d="M132.59,169.64h0a14.49,14.49,0,0,1,6,19.61l-14.16,26.57a14.5,14.5,0,0,1-19.61,6h0a14.5,14.5,0,0,1-6-19.62L113,175.61A14.49,14.49,0,0,1,132.59,169.64Z" fill="#34abeb"/><path d="M143.18,125h0a14.5,14.5,0,0,1,19.58,6.07l31.35,59.58A14.51,14.51,0,0,1,188,210.27h0a14.52,14.52,0,0,1-19.59-6.08L137.1,144.61A14.49,14.49,0,0,1,143.18,125Z" fill="#34abeb"/><path d="M200.07,123.85h0a14.5,14.5,0,0,1,19.42,6.58l35.74,72.31a14.51,14.51,0,0,1-6.58,19.43h0a14.51,14.51,0,0,1-19.42-6.58l-35.74-72.31A14.52,14.52,0,0,1,200.07,123.85Z" fill="#34abeb"/></svg>