<svg width="24" height="24" viewBox="0 0 24 24" fill="none" xmlns="http://www.w3.org/2000/svg">
<circle cx="12" cy="12" r="11" fill="#34ABEB"/>
<path fill-rule="evenodd" clip-rule="evenodd" d="M12 19C12.9665 19 13.75 18.2165 13.75 17.25V13.75H17.25C18.2165 13.75 19 12.9665 19 12C19 11.0335 18.2165 10.25 17.25 10.25H13.75V6.75C13.75 5.7835 12.9665 5 12 5C11.0335 5 10.25 5.7835 10.25 6.75L10.25 10.25H6.75C5.7835 10.25 5 11.0335 5 12C5 12.9665 5.7835 13.75 6.75 13.75H10.25L10.25 17.25C10.25 18.2165 11.0335 19 12 19Z" fill="white"/>
</svg>
