<svg width="24" height="24" viewBox="0 0 24 24" fill="none" xmlns="http://www.w3.org/2000/svg">
<g clip-path="url(#clip0)">
<path d="M20.4374 9.261C20.1269 9.261 19.8749 9.009 19.8749 8.6985V5.0625C19.8749 4.54575 19.4541 4.125 18.9374 4.125H15.3014C14.9909 4.125 14.7389 3.873 14.7389 3.5625C14.7389 3.252 14.9909 3 15.3014 3H18.9374C20.0751 3 20.9999 3.92475 20.9999 5.0625V8.6985C20.9999 9.009 20.7479 9.261 20.4374 9.261Z" fill="black"/>
<path d="M3.5625 9.261C3.252 9.261 3 9.009 3 8.6985V5.0625C3 3.92475 3.92475 3 5.0625 3H8.6985C9.009 3 9.261 3.252 9.261 3.5625C9.261 3.873 9.009 4.125 8.6985 4.125H5.0625C4.54575 4.125 4.125 4.54575 4.125 5.0625V8.6985C4.125 9.009 3.873 9.261 3.5625 9.261V9.261Z" fill="black"/>
<path d="M18.9374 21H15.3014C14.9909 21 14.7389 20.748 14.7389 20.4375C14.7389 20.127 14.9909 19.875 15.3014 19.875H18.9374C19.4541 19.875 19.8749 19.4543 19.8749 18.9375V15.3015C19.8749 14.991 20.1269 14.739 20.4374 14.739C20.7479 14.739 20.9999 14.991 20.9999 15.3015V18.9375C20.9999 20.0753 20.0751 21 18.9374 21Z" fill="black"/>
<path d="M8.6985 21H5.0625C3.92475 21 3 20.0753 3 18.9375V15.3015C3 14.991 3.252 14.739 3.5625 14.739C3.873 14.739 4.125 14.991 4.125 15.3015V18.9375C4.125 19.4543 4.54575 19.875 5.0625 19.875H8.6985C9.009 19.875 9.261 20.127 9.261 20.4375C9.261 20.748 9.009 21 8.6985 21V21Z" fill="black"/>
<path d="M10.125 11.25H5.8125C5.502 11.25 5.25 10.998 5.25 10.6875V5.8125C5.25 5.502 5.502 5.25 5.8125 5.25H10.125C10.4355 5.25 10.6875 5.502 10.6875 5.8125V10.6875C10.6875 10.998 10.4355 11.25 10.125 11.25ZM6.375 10.125H9.5625V6.375H6.375V10.125Z" fill="black"/>
<path d="M18.9374 18.75H14.0624C13.7519 18.75 13.4999 18.498 13.4999 18.1875V15.5625C13.4999 15.252 13.7519 15 14.0624 15C14.3729 15 14.6249 15.252 14.6249 15.5625V17.625H18.3749V14.625H15.5624C15.2519 14.625 14.9999 14.373 14.9999 14.0625C14.9999 13.752 15.2519 13.5 15.5624 13.5H18.9374C19.2479 13.5 19.4999 13.752 19.4999 14.0625V18.1875C19.4999 18.498 19.2479 18.75 18.9374 18.75Z" fill="black"/>
<path d="M18.1875 9.75H14.8125C14.502 9.75 14.25 9.498 14.25 9.1875V5.8125C14.25 5.502 14.502 5.25 14.8125 5.25H18.1875C18.498 5.25 18.75 5.502 18.75 5.8125V9.1875C18.75 9.498 18.498 9.75 18.1875 9.75ZM15.375 8.625H17.625V6.375H15.375V8.625Z" fill="black"/>
<path d="M12.1875 13.5H5.8125C5.502 13.5 5.25 13.248 5.25 12.9375C5.25 12.627 5.502 12.375 5.8125 12.375H11.625V6.5625C11.625 6.252 11.877 6 12.1875 6C12.498 6 12.75 6.252 12.75 6.5625V12.9375C12.75 13.248 12.498 13.5 12.1875 13.5Z" fill="black"/>
<path d="M14.0624 13.5C13.7519 13.5 13.4999 13.248 13.4999 12.9375V11.8125C13.4999 11.502 13.7519 11.25 14.0624 11.25H18.1874C18.4979 11.25 18.7499 11.502 18.7499 11.8125C18.7499 12.123 18.4979 12.375 18.1874 12.375H14.6249V12.9375C14.6249 13.248 14.3729 13.5 14.0624 13.5Z" fill="black"/>
<path d="M9.9375 18.75H5.8125C5.502 18.75 5.25 18.498 5.25 18.1875V15.1875C5.25 14.877 5.502 14.625 5.8125 14.625H9.9375C10.248 14.625 10.5 14.877 10.5 15.1875V18.1875C10.5 18.498 10.248 18.75 9.9375 18.75ZM6.375 17.625H9.375V15.75H6.375V17.625Z" fill="black"/>
<path d="M11.8125 17.2657C12.123 17.2657 12.375 17.0137 12.375 16.7032V14.8282C12.375 14.5177 12.123 14.2657 11.8125 14.2657C11.502 14.2657 11.25 14.517 11.25 14.8282V16.7032C11.25 17.0137 11.502 17.2657 11.8125 17.2657Z" fill="black"/>
</g>
<defs>
<clipPath id="clip0">
<rect x="3" y="3" width="18" height="18" fill="white"/>
</clipPath>
</defs>
</svg>
