<svg width="24" height="24" viewBox="0 0 24 24" fill="none" xmlns="http://www.w3.org/2000/svg">
<path d="M22.5707 9.85957L3.20688 1.82472C2.39111 1.48619 1.4695 1.63512 0.80177 2.21318C0.134035 2.79133 -0.145246 3.68215 0.0730042 4.53794L1.79655 11.2969H10.2353C10.6236 11.2969 10.9384 11.6118 10.9384 12.0001C10.9384 12.3884 10.6236 12.7033 10.2353 12.7033H1.79655L0.0730042 19.4622C-0.145246 20.3181 0.133989 21.2089 0.80177 21.787C1.47086 22.3662 2.39257 22.5133 3.20693 22.1755L22.5707 14.1407C23.4523 13.7749 24 12.9546 24 12.0001C24 11.0456 23.4523 10.2253 22.5707 9.85957Z" fill="#34ABEB"/>
</svg>
